<svg xmlns="http://www.w3.org/2000/svg" viewBox="0 0 206.15 283.46"><defs><style>.cls-1{opacity:0.17;}.cls-2,.cls-5{fill:#fff;}.cls-10,.cls-11,.cls-12,.cls-2,.cls-3,.cls-4,.cls-7{fill-rule:evenodd;}.cls-3{fill:#cc4137;}.cls-4,.cls-8{fill:#4d4d4d;}.cls-6{fill:#6b6868;}.cls-7{fill:#de453a;}.cls-9{fill:#ebb859;}.cls-10{fill:#f9cabd;}.cls-11{fill:#edbbad;}.cls-12{fill:#d49d8e;}</style></defs><title>congrats</title><g id="Layer_2" data-name="Layer 2"><g id="OBJECTS"><ellipse class="cls-1" cx="102.54" cy="268.11" rx="79.33" ry="15.35"/><path class="cls-2" d="M31.18,115.43A12.51,12.51,0,1,1,20.8,129.77,12.52,12.52,0,0,1,31.18,115.43Z"/><path class="cls-3" d="M137,84.62c1.34-19.05-36.33-45.07-69.78-26.35-34,19-17.16,47-32.91,60s-4.87,23,34.78-1.8S136.22,95.65,137,84.62Z"/><path class="cls-2" d="M94.79,66.28c25.26-4.05,48,6.93,50.85,24.51S130.26,125.91,105,130,57,123,54.15,105.45,69.52,70.33,94.79,66.28Z"/><path class="cls-4" d="M176.11,122.78c2.57-6.71,12-17.3,15.19-14.54s-1,6.43-1,6.43,10.54-7.51,15.1,1S192.19,138.22,182,134.56,174.36,127.33,176.11,122.78Z"/><path class="cls-3" d="M140.33,163.59c-4.53-5.3.75-20.37,14.74-32.34s26.62-12.19,31.14-6.9S188,141.59,174,153.56,144.86,168.88,140.33,163.59Z"/><path class="cls-5" d="M173.26,115.43a3.58,3.58,0,1,0-.71,7.13c2.5.25,5.84,2.89,8.63,6.14s4.92,7.06,4.7,9.28a3.58,3.58,0,1,0,7.13.7c.42-4.21-2.42-10-6.39-14.63C182.78,119.56,177.7,115.88,173.26,115.43Z"/><path class="cls-6" d="M198.84,123a1.43,1.43,0,1,0,2,2.09,12.45,12.45,0,0,0,2-2.43,10,10,0,0,0,1.21-2.73,1.45,1.45,0,0,0-1-1.76,1.43,1.43,0,0,0-1.75,1,7.29,7.29,0,0,1-.86,1.93A9.89,9.89,0,0,1,198.84,123Z"/><path class="cls-6" d="M190.34,112.9a1.43,1.43,0,0,1-2-2.09l.13-.15,0,0s0,0,0,0a1.43,1.43,0,0,1,2.77.73,2.91,2.91,0,0,1-.32.77l-.06.1A3.55,3.55,0,0,1,190.34,112.9Z"/><path class="cls-4" d="M30.38,136.94c-3.36-6.35-14-15.72-16.84-12.6s1.76,6.27,1.76,6.27S3.93,124.43.42,133.38s15.86,20.84,25.58,16S32.66,141.25,30.38,136.94Z"/><path class="cls-3" d="M70.82,173.13c3.86-5.8-3.2-20.13-18.53-30.31s-27.9-8.9-31.75-3.09.31,17.32,15.65,27.51S67,178.94,70.82,173.13Z"/><path class="cls-5" d="M33.89,136.3a3.59,3.59,0,0,0-1.58-7c-4.34,1-8.94,5.25-12.21,10.18-3.39,5.1-5.51,11.17-4.58,15.29a3.58,3.58,0,1,0,7-1.55c-.49-2.18,1.12-6.13,3.55-9.79S31.44,136.86,33.89,136.3Z"/><path class="cls-6" d="M5.81,142.15a1.44,1.44,0,0,0,1.81-2.23,9.65,9.65,0,0,1-1.68-1.75,7.16,7.16,0,0,1-1-1.87,1.43,1.43,0,1,0-2.71.93,10,10,0,0,0,1.4,2.64A12.82,12.82,0,0,0,5.81,142.15Z"/><path class="cls-6" d="M15,129.27A1.44,1.44,0,0,0,16.81,127l-.14-.14,0,0a.08.08,0,0,1,0,0,1.43,1.43,0,0,0-2.71.93,3.41,3.41,0,0,0,.37.74.86.86,0,0,1,.07.1A4.1,4.1,0,0,0,15,129.27Z"/><path class="cls-4" d="M127.59,248.41c-8.38,0-15.17,2.18-15,13s6.6,11.37,17.47,12.84,20.39-2.45,19.16-9.37S136,248.41,127.59,248.41Z"/><path class="cls-3" d="M127.59,196.37c-11.4,0-20.64,14.93-20.64,33.34s9.24,27,20.64,27,20.64-8.62,20.64-27S139,196.37,127.59,196.37Z"/><path class="cls-5" d="M106.25,252.94a3.59,3.59,0,0,1,4.41-5.67c3.13,2.43,10,3.6,17,3.6,7.16,0,14.08-1.21,16.77-3.5a3.58,3.58,0,0,1,4.63,5.47c-4,3.42-12.76,5.21-21.4,5.21C119.28,258.05,110.7,256.4,106.25,252.94Z"/><path class="cls-6" d="M141.81,261.49a1.43,1.43,0,0,1,2-2.09,12.23,12.23,0,0,1,2,2.44,9.75,9.75,0,0,1,1.21,2.73,1.43,1.43,0,0,1-2.77.73,7.22,7.22,0,0,0-.86-1.94A9.89,9.89,0,0,0,141.81,261.49Z"/><path class="cls-4" d="M68.48,245.11c-7.25-4.19-14.22-5.7-19.44,3.77s-.88,13.1,8.69,19.86,18.88,8.09,21.28,1.49S75.73,249.31,68.48,245.11Z"/><path class="cls-3" d="M94.54,200.06c-9.87-5.7-25.34,2.59-34.56,18.53s-5.53,28,4.33,33.73,22.18,2.88,31.4-13.06S104.41,205.77,94.54,200.06Z"/><path class="cls-5" d="M54.4,235.65a3.59,3.59,0,0,0-6.65,2.7c2.12,5.22,8.72,11,16,15.13,7.48,4.33,15.94,7.15,21.13,6.21a3.59,3.59,0,0,0-1.27-7.06c-3.48.64-10.07-1.78-16.26-5.37S55.89,239.32,54.4,235.65Z"/><path class="cls-6" d="M77.12,262.81a1.43,1.43,0,0,0-2.75.82,9.27,9.27,0,0,1,.41,2.4,6.81,6.81,0,0,1-.23,2.1,1.44,1.44,0,0,0,2.77.76,9.77,9.77,0,0,0,.32-3A12.72,12.72,0,0,0,77.12,262.81Z"/><path class="cls-7" d="M37.86,220.48C40.61,200.14,56.68,115,102.45,115s63.22,85.19,66.19,105.32C144.58,241.73,64.5,240.13,37.86,220.48Z"/><path class="cls-5" d="M98.81,115a3.59,3.59,0,1,1,7.18,0V235.79a3.59,3.59,0,1,1-7.18,0Z"/><path class="cls-7" d="M102.88,125.89c6.44-1.16,13.63,8.87,16.08,22.41s-.8,25.45-7.23,26.61S98.1,166,95.65,152.5,96.45,127.05,102.88,125.89Z"/><path class="cls-8" d="M43.87,189.82c30.52,15,89.66,18.8,118.81,1.86,1.57,4.88,2.84,9.58,3.82,13.91-31.57,18.26-95.08,15.88-126.5-2C41,199.31,42.3,194.64,43.87,189.82Z"/><path class="cls-5" d="M33.17,221.39a3.58,3.58,0,1,1,4.58-5.5C51.19,227.06,79.2,233,106.41,233c26.05,0,51-5.39,61.26-16.73A3.59,3.59,0,1,1,173,221c-11.67,13-38.75,19.11-66.59,19.11C77.76,240.15,47.94,233.66,33.17,221.39Z"/><path class="cls-9" d="M103.25,197.11h7.94a4.59,4.59,0,0,1,4.58,4.58v15.88a4.58,4.58,0,0,1-4.58,4.58h-7.94V216.4H110V202.86h-6.77Zm-7.94,0h7.94v5.75H96.48V216.4h6.77v5.75H95.31a4.53,4.53,0,0,1-3.23-1.34,4.58,4.58,0,0,1-1.35-3.24V201.69a4.61,4.61,0,0,1,4.58-4.58Z"/><path class="cls-2" d="M93,101.46c2,6.23-7.06,14.65-20.17,18.8s-25.35,2.46-27.32-3.77,7.06-14.65,20.17-18.8S91.06,95.22,93,101.46Z"/><path class="cls-2" d="M104.94,99.55c.07,6.54,11.29,11.71,25,11.55s24.85-5.58,24.77-12.12-11.28-11.71-25-11.55S104.87,93,104.94,99.55Z"/><path class="cls-10" d="M140.3,88.11c2.81-.45,5.76,3.39,6.59,8.57.56,3.49,0,6.7-1.26,8.56l0-.17a28.07,28.07,0,0,0-7.75-15.13A3.68,3.68,0,0,1,140.3,88.11Z"/><path class="cls-10" d="M100,80.37c20.9-3.35,40.08,7.91,42.84,25.15S130.87,139.45,110,142.8s-40.07-7.91-42.84-25.15S79.08,83.72,100,80.37Z"/><ellipse class="cls-5" cx="88.93" cy="147.92" rx="24.91" ry="11.84" transform="translate(-65.28 225.43) rotate(-85.67)"/><path class="cls-2" d="M83.51,114.28c6.1,2.34,7,14.66,2.1,27.49s-13.89,21.35-20,19-7-14.66-2.1-27.5S77.41,111.93,83.51,114.28Z"/><path class="cls-2" d="M107.58,116.53c2.21,6.2-9.28,15-25.66,19.68s-31.44,3.44-33.65-2.75,9.29-15,25.67-19.69S105.38,110.33,107.58,116.53Z"/><path class="cls-2" d="M102.48,123.35c6.43-1.16,13.63,8.87,16.07,22.41s-.8,25.45-7.23,26.61S97.69,163.5,95.25,150,96,124.51,102.48,123.35Z"/><path class="cls-2" d="M113.81,119.39c-6,2.51-6.66,14.84-1.39,27.55s14.45,21,20.49,18.47,6.66-14.84,1.38-27.55S119.85,116.89,113.81,119.39Z"/><path class="cls-2" d="M118,108.75c-5.06,4.14-2.11,16.13,6.6,26.78s19.86,15.93,24.93,11.8,2.11-16.13-6.6-26.78S123.05,104.61,118,108.75Z"/><ellipse class="cls-5" cx="132.57" cy="116.24" rx="24.91" ry="11.84" transform="translate(-1.31 1.51) rotate(-0.65)"/><path class="cls-2" d="M100,110.16c10.48-1.68,19.67,1.24,20.51,6.52s-7,10.92-17.44,12.6S83.44,128,82.6,122.76,89.56,111.84,100,110.16Z"/><path class="cls-11" d="M106.09,101.79A12.3,12.3,0,1,1,95.9,115.88,12.3,12.3,0,0,1,106.09,101.79Z"/><path class="cls-10" d="M102.54,106.21a3.65,3.65,0,1,1-3,4.19A3.66,3.66,0,0,1,102.54,106.21Z"/><path class="cls-12" d="M110.17,127.25c2.36-.38,4.68,1.88,5.19,5s-1,6-3.36,6.4-4.67-1.87-5.18-5S107.82,127.63,110.17,127.25Z"/><path class="cls-5" d="M110.75,90.69a2.87,2.87,0,0,1-4.28-3.82c1.9-2.12,5.61-3.35,9.25-3.64s7.75.42,9.78,2.23a2.86,2.86,0,0,1-3.82,4.27c-.82-.73-3.09-1-5.5-.78S111.59,89.74,110.75,90.69Z"/><path class="cls-5" d="M100.21,87.87a2.86,2.86,0,1,1-2.86,5c-1.11-.63-3.41-.5-5.71.06s-4.43,1.5-5,2.45a2.86,2.86,0,0,1-5-2.86c1.36-2.35,4.91-4.28,8.59-5.17S97.75,86.45,100.21,87.87Z"/><path class="cls-10" d="M64.1,100.33c-2.81.45-4.41,5-3.58,10.19.56,3.49,2.08,6.37,3.87,7.74l0-.17A28.19,28.19,0,0,1,67,101.29,3.64,3.64,0,0,0,64.1,100.33Z"/><path class="cls-8" d="M114.31,100.25a1.48,1.48,0,0,1-2.37-1.77l0,0h0a8.73,8.73,0,0,1,5.71-3.13,8.82,8.82,0,0,1,6.42,1.46h0l.06,0a1.48,1.48,0,0,1-1.78,2.36l0,0a5.91,5.91,0,0,0-4.25-.91,5.68,5.68,0,0,0-3.77,2h0Z"/><path class="cls-8" d="M89.61,103.64a1.48,1.48,0,0,1-2.37-1.76l0-.06h0A8.7,8.7,0,0,1,93,98.67a8.86,8.86,0,0,1,6.42,1.46h0l0,.05a1.47,1.47,0,1,1-1.76,2.36l-.06,0a5.91,5.91,0,0,0-4.25-.91,5.75,5.75,0,0,0-3.77,2h0Z"/><path class="cls-5" d="M194.29,56.89l9.35-2.09V64.9a1.14,1.14,0,0,1-.43,1.07,2.08,2.08,0,0,1-1.1.33c-.43.06-.76.12-1,.18a7.46,7.46,0,0,0-1.22.46,9.27,9.27,0,0,0-3.12,2.31,5.22,5.22,0,0,0-1.32,2.47,2.62,2.62,0,0,0,.3,2,1.72,1.72,0,0,0,1.58.8,7.43,7.43,0,0,0,5.45-2.42,7,7,0,0,0,2.26-4.9V43l-10.72,2.32V50l9.35-2.11v2.22l-9.35,2.21ZM183.5,47.65V69.29a2,2,0,0,1-.56,1.62,4.11,4.11,0,0,1-1.44.47c-.43.06-.77.11-1,.17a6.62,6.62,0,0,0-1.15.43,9.31,9.31,0,0,0-3.24,2.21,5,5,0,0,0-1.27,2.39,2.24,2.24,0,0,0,.3,1.91,1.92,1.92,0,0,0,1.7.77,7.49,7.49,0,0,0,5.92-2.86,8.63,8.63,0,0,0,2.21-5.75V59l9.35-2.09v-4.6l-9.35,2.21V52.08L194.29,50V45.32Z"/><path class="cls-5" d="M150.94,10.18h-.51V37.56c0,.32-.11.52-.34.6a6.62,6.62,0,0,1-.94,0,9,9,0,0,0-1.28,0,4.81,4.81,0,0,0-1.57.43,6.74,6.74,0,0,0-2.47,1.66,5.91,5.91,0,0,0-1.37,2.3,2,2,0,0,0,.22,2,2.86,2.86,0,0,0,2.43.89A6.5,6.5,0,0,0,149.79,43a7.21,7.21,0,0,0,2.26-4.89v-20a23.55,23.55,0,0,0,2.35,2.13l2.34,1.67a20.52,20.52,0,0,1,3.33,2.59,5.29,5.29,0,0,1,1.36,3.59A10.37,10.37,0,0,1,159.85,33a30.06,30.06,0,0,1-2.94,4.31l.34.29a16,16,0,0,0,5.84-7.06,8.79,8.79,0,0,0-1.53-9.8c-.83-.88-1.68-1.71-2.56-2.48-.54-.45-1.28-1-2.22-1.78a34.9,34.9,0,0,1-3-2.56A20.93,20.93,0,0,1,150.94,10.18Z"/><path class="cls-5" d="M61.5,13.89l9.35-2.09V21.9A1.15,1.15,0,0,1,70.42,23a2.22,2.22,0,0,1-1.1.33c-.43.06-.77.12-1,.18a7,7,0,0,0-1.23.46A9.33,9.33,0,0,0,64,26.25a5.22,5.22,0,0,0-1.32,2.47,2.59,2.59,0,0,0,.3,2,1.72,1.72,0,0,0,1.57.81A7.45,7.45,0,0,0,70,29.05a6.92,6.92,0,0,0,2.26-4.89V0L61.5,2.31V7l9.35-2.11V7.07L61.5,9.29ZM50.71,4.65V26.29a1.93,1.93,0,0,1-.56,1.61,3.87,3.87,0,0,1-1.44.48c-.43.05-.77.11-1,.16a8.77,8.77,0,0,0-1.15.43,9.45,9.45,0,0,0-3.24,2.21A5,5,0,0,0,42,33.57a2.22,2.22,0,0,0,.3,1.92,1.94,1.94,0,0,0,1.7.77,7.49,7.49,0,0,0,5.92-2.86,8.63,8.63,0,0,0,2.21-5.75V16l9.35-2.09V9.29L52.15,11.5V9.07L61.5,7V2.31Z"/><path class="cls-5" d="M9,61.4H8.53V88.78a.56.56,0,0,1-.35.6,6.45,6.45,0,0,1-.93,0,9,9,0,0,0-1.28,0,4.74,4.74,0,0,0-1.57.43,6.77,6.77,0,0,0-2.48,1.66A5.79,5.79,0,0,0,.56,93.82a2,2,0,0,0,.22,2,2.84,2.84,0,0,0,2.42.9q2.38,0,4.69-2.48a7.25,7.25,0,0,0,2.26-4.89v-20a22.34,22.34,0,0,0,2.34,2.13l2.35,1.67a20.32,20.32,0,0,1,3.32,2.59,5.24,5.24,0,0,1,1.36,3.59,10.26,10.26,0,0,1-1.58,4.89A28.5,28.5,0,0,1,15,88.49l.35.29a16.07,16.07,0,0,0,5.83-7.06,8.79,8.79,0,0,0-1.53-9.8c-.83-.88-1.68-1.7-2.56-2.48-.54-.45-1.28-1-2.22-1.78a34.9,34.9,0,0,1-3-2.56A20.43,20.43,0,0,1,9,61.4Z"/></g></g></svg>