<svg xmlns="http://www.w3.org/2000/svg" viewBox="0 0 242.3 283.46"><defs><style>.cls-1{opacity:0.17;}.cls-10,.cls-2{fill:#4d4d4d;}.cls-11,.cls-13,.cls-14,.cls-15,.cls-2,.cls-3,.cls-6,.cls-8{fill-rule:evenodd;}.cls-3{fill:#cc4137;}.cls-13,.cls-4{fill:#fff;}.cls-5{fill:#6b6868;}.cls-6{fill:#4bb386;}.cls-7{fill:#ebb859;}.cls-8,.cls-9{fill:#de453a;}.cls-11,.cls-12{fill:#f9cabd;}.cls-14{fill:#edbbad;}.cls-15{fill:#d49d8e;}</style></defs><title>happy</title><g id="Layer_2" data-name="Layer 2"><g id="OBJECTS"><ellipse class="cls-1" cx="135.26" cy="267.92" rx="80.3" ry="15.54"/><path class="cls-2" d="M211.21,124.19c2.6-6.79,12.12-17.5,15.38-14.71s-1,6.51-1,6.51,10.67-7.6,15.29,1-13.39,22.88-23.75,19.17S209.44,128.8,211.21,124.19Z"/><path class="cls-3" d="M175,165.5c-4.59-5.36.75-20.62,14.92-32.73s26.94-12.34,31.52-7,1.8,17.44-12.36,29.55S179.58,170.86,175,165.5Z"/><path class="cls-4" d="M208.32,116.76a3.62,3.62,0,0,0-.71,7.21c2.52.25,5.91,2.93,8.73,6.22s5,7.15,4.76,9.39a3.62,3.62,0,0,0,7.21.71c.43-4.26-2.44-10.11-6.46-14.81C218,120.94,212.82,117.21,208.32,116.76Z"/><path class="cls-5" d="M234.21,124.41a1.45,1.45,0,1,0,2,2.11,12.78,12.78,0,0,0,2-2.46,10.4,10.4,0,0,0,1.22-2.76,1.45,1.45,0,1,0-2.81-.74,7,7,0,0,1-.86,2A10.23,10.23,0,0,1,234.21,124.41Z"/><path class="cls-5" d="M225.62,114.19a1.45,1.45,0,0,1-2-2.11.65.65,0,0,0,.13-.16l0,0s0,0,0,0a1.45,1.45,0,0,1,2.81.74,3.09,3.09,0,0,1-.33.77.3.3,0,0,1-.06.11A3.55,3.55,0,0,1,225.62,114.19Z"/><path class="cls-6" d="M33.93,225.09c31.05,20.16,68.77,24.26,86.79-3.52S135,144.45,104,124.3,26.32,120.82,8.3,148.6,2.89,204.94,33.93,225.09Z"/><path class="cls-7" d="M80.22,147.17a2.33,2.33,0,1,1-4.15,2.14c-1-1.91-1.29-5.55-.47-9.16a16.69,16.69,0,0,1,3.31-7,11.94,11.94,0,0,1,7.47-4.3c3.24-.52,7.25.09,12.12,2.49a2.34,2.34,0,0,1-2.07,4.19c-3.91-1.93-7-2.45-9.32-2.07a7.39,7.39,0,0,0-4.6,2.67,12.24,12.24,0,0,0-2.36,5.07C79.57,143.74,79.67,146.1,80.22,147.17Z"/><path class="cls-7" d="M74.84,155.39a2.34,2.34,0,0,1,4.65-.48c.75,7.2-2.38,15.33-7.49,22.5-5.4,7.58-13.08,14.18-20.69,17.46a2.34,2.34,0,0,1-1.85-4.3c6.86-2.95,13.8-8.95,18.73-15.87C72.7,168.39,75.47,161.38,74.84,155.39Z"/><path class="cls-7" d="M75.13,145.07a2.33,2.33,0,1,1,4.66,0c0,7.24-3.86,15-9.65,21.66-6.11,7-14.38,12.82-22.29,15.35a2.33,2.33,0,1,1-1.41-4.44c7.1-2.27,14.6-7.57,20.19-14C71.73,157.79,75.17,151.09,75.13,145.07Z"/><circle class="cls-4" cx="65.14" cy="114.38" r="12.67"/><path class="cls-3" d="M175.83,87.86c4.4-18.81-29.09-50.85-65.52-37.5C73.26,63.93,85.65,94.55,67.82,105s-8.54,22.18,35.05,3.78S173.29,98.77,175.83,87.86Z"/><ellipse class="cls-4" cx="135.62" cy="95.42" rx="47.86" ry="32.64"/><path class="cls-2" d="M160.61,248.24c-8.48,0-15.35,2.21-15.13,13.15s6.68,11.52,17.68,13,20.64-2.48,19.39-9.48S169.08,248.24,160.61,248.24Z"/><path class="cls-3" d="M160.61,195.56c-11.54,0-20.89,15.11-20.89,33.75s9.35,27.36,20.89,27.36S181.5,248,181.5,229.31,172.14,195.56,160.61,195.56Z"/><path class="cls-4" d="M139,252.83a3.63,3.63,0,0,1,4.46-5.74c3.17,2.46,10.13,3.64,17.19,3.64,7.24,0,14.24-1.22,17-3.54a3.63,3.63,0,1,1,4.68,5.54c-4.06,3.45-12.91,5.27-21.65,5.27C152.2,258,143.52,256.32,139,252.83Z"/><path class="cls-5" d="M175,261.48a1.45,1.45,0,0,1,2-2.11,12.74,12.74,0,0,1,2,2.46,9.8,9.8,0,0,1,1.22,2.76,1.45,1.45,0,0,1-2.8.74,7.2,7.2,0,0,0-.87-2A10,10,0,0,0,175,261.48Z"/><path class="cls-2" d="M110.63,248.24c8.48,0,15.35,2.21,15.13,13.15s-5.86,11.93-17.68,13-20.64-2.48-19.39-9.48S102.16,248.24,110.63,248.24Z"/><path class="cls-3" d="M110.63,195.56c11.54,0,20.89,15.11,20.89,33.75s-9.35,27.36-20.89,27.36S89.74,248,89.74,229.31,99.1,195.56,110.63,195.56Z"/><path class="cls-4" d="M127.77,247.09a3.63,3.63,0,0,1,4.46,5.74C127.72,256.32,119,258,110.58,258c-8.74,0-17.59-1.82-21.65-5.27a3.63,3.63,0,1,1,4.68-5.54c2.73,2.32,9.73,3.54,17,3.54C117.64,250.73,124.6,249.55,127.77,247.09Z"/><path class="cls-5" d="M94.1,259.37a1.45,1.45,0,1,1,2,2.11,10,10,0,0,0-1.57,1.89,6.9,6.9,0,0,0-.87,2,1.45,1.45,0,0,1-2.81-.74,10.4,10.4,0,0,1,1.22-2.76A13.15,13.15,0,0,1,94.1,259.37Z"/><path class="cls-8" d="M69.79,220c2.78-20.58,19-106.79,65.37-106.72s64,86.22,67,106.6C177.81,241.48,96.76,239.85,69.79,220Z"/><path class="cls-4" d="M131.48,113.25a3.64,3.64,0,1,1,7.27,0V235.47a3.64,3.64,0,1,1-7.27,0Z"/><ellipse class="cls-9" cx="135.62" cy="148.85" rx="11.98" ry="25.21" transform="translate(-2.88 2.68) rotate(-1.12)"/><path class="cls-10" d="M75.87,188.94c30.9,15.14,90.75,19,120.25,1.88,1.59,4.94,2.88,9.7,3.87,14.07-32,18.49-96.24,16.08-128-2C73,198.54,74.28,193.82,75.87,188.94Z"/><path class="cls-4" d="M65.05,220.89a3.62,3.62,0,1,1,4.63-5.57c13.6,11.31,41.95,17.29,69.5,17.29,26.36,0,51.66-5.45,62-16.93a3.63,3.63,0,1,1,5.4,4.86c-11.82,13.11-39.23,19.34-67.4,19.34C110.17,239.88,80,233.31,65.05,220.89Z"/><path class="cls-7" d="M136,196.32h8a4.64,4.64,0,0,1,4.64,4.63V217a4.64,4.64,0,0,1-4.64,4.64h-8v-5.82h6.86v-13.7H136Zm-8,0h8v5.82h-6.85v13.7H136v5.82h-8A4.64,4.64,0,0,1,123.3,217V201a4.64,4.64,0,0,1,4.64-4.63Z"/><ellipse class="cls-4" cx="104.26" cy="101.36" rx="25.21" ry="11.98" transform="translate(-13.77 16.43) rotate(-8.46)"/><ellipse class="cls-4" cx="166.34" cy="101.36" rx="11.98" ry="25.21" transform="translate(41.62 250.98) rotate(-81.54)"/><path class="cls-11" d="M178.57,91.89c2.88,0,5.22,4.3,5.22,9.61,0,3.58-1.06,6.7-2.64,8.36v-.17a28.46,28.46,0,0,0-5.33-16.37A3.7,3.7,0,0,1,178.57,91.89Z"/><ellipse class="cls-12" cx="135.62" cy="109.69" rx="42.67" ry="32"/><path class="cls-13" d="M123.51,118.91c6.44,1.54,9,13.76,5.8,27.3S118.23,169.49,111.8,168s-9-13.76-5.8-27.3S117.07,117.37,123.51,118.91Z"/><path class="cls-13" d="M117.63,108.94c5.72,3.32,4.69,15.78-2.31,27.82s-17.3,19.1-23,15.78-4.69-15.78,2.3-27.82S111.9,105.62,117.63,108.94Z"/><ellipse class="cls-4" cx="104.26" cy="118.76" rx="25.21" ry="11.98" transform="translate(-16.33 16.62) rotate(-8.46)"/><ellipse class="cls-4" cx="135.62" cy="146.25" rx="11.98" ry="25.21" transform="translate(-2.83 2.68) rotate(-1.12)"/><path class="cls-2" d="M113.12,149.94c-1.56,1.93-5.44,1.36-8.67-1.26s-4.56-6.3-3-8.22,5.44-1.36,8.67,1.26S114.69,148,113.12,149.94Z"/><ellipse class="cls-4" cx="152.95" cy="143.43" rx="11.98" ry="25.21" transform="translate(-29.13 39.45) rotate(-13.43)"/><path class="cls-13" d="M153,108.94c-5.72,3.32-4.69,15.78,2.3,27.82s17.31,19.1,23,15.78,4.69-15.78-2.3-27.82S158.69,105.62,153,108.94Z"/><ellipse class="cls-4" cx="166.34" cy="118.76" rx="11.98" ry="25.21" transform="translate(24.41 265.82) rotate(-81.54)"/><path class="cls-13" d="M134.81,127.07c10.71,0,19.45-4.4,19.45-9.8s-8.74-9.8-19.45-9.8-19.45,4.4-19.45,9.8S124.09,127.07,134.81,127.07Z"/><path class="cls-14" d="M135.62,125a12.45,12.45,0,1,0-12.45-12.45A12.47,12.47,0,0,0,135.62,125Z"/><path class="cls-11" d="M131.37,111.32a3.7,3.7,0,1,0-3.7-3.69A3.7,3.7,0,0,0,131.37,111.32Z"/><path class="cls-4" d="M138.31,91.48a2.9,2.9,0,1,1-4.17-4c2-2.07,5.81-3.16,9.5-3.3,3.84-.15,7.82.74,9.8,2.65a2.9,2.9,0,0,1-4,4.17c-.79-.78-3.09-1.11-5.52-1S139.2,90.56,138.31,91.48Z"/><path class="cls-4" d="M127.77,88.2a2.9,2.9,0,1,1-3.1,4.9c-1.09-.68-3.43-.65-5.78-.18s-4.54,1.35-5.13,2.28a2.9,2.9,0,0,1-4.9-3.1c1.47-2.32,5.13-4.12,8.9-4.88C121.38,86.5,125.34,86.67,127.77,88.2Z"/><path class="cls-11" d="M92.88,91.89c-2.88,0-5.22,4.3-5.22,9.61,0,3.58,1.06,6.7,2.64,8.36v-.17a28.46,28.46,0,0,1,5.33-16.37A3.7,3.7,0,0,0,92.88,91.89Z"/><path class="cls-6" d="M87.6,133.22c-4.67,5.66-7.7,9.91-3.44,13.5,4.06,3.43,13.12,3.11,12.37,9-1.65,13.09-.85,24.81,2.72,22.47,7.29-4.79,9.67-6.83,11.11-1.15,2.73,10.76,6.94,10.61,8.3-.42.72-5.81-.44-4.7,11.93-2.36,11.72,2.21,6.73-27.21-18.93-30.27C101.32,142.78,94.6,124.72,87.6,133.22Z"/><path class="cls-2" d="M84.82,150.49c4.5-5.05,9.52-8.52,15.05-9.13,3.16-.35,6.5-1,10.52,7.87s-11.46,18.88-21.25,13.86S81.54,154.18,84.82,150.49Z"/><path class="cls-3" d="M59.5,174.13c-13.29-20.41,27.1-35.55,36.09-21.74C104.14,165.53,72.44,194,59.5,174.13Z"/><path class="cls-4" d="M83,146.69c-2-.46-2-3.81-.8-5.45,1.9-2.71,4.22-1.35,6.68.52,7.08,5.38,13.35,18.77,11.68,25.9A3.63,3.63,0,0,1,93.45,166C94.53,161.4,87.71,147.81,83,146.69Z"/><path class="cls-5" d="M98.05,143.75a1.45,1.45,0,1,0,1.36,2.56,10.17,10.17,0,0,1,2.3-.88,7.24,7.24,0,0,1,2.13-.19,1.45,1.45,0,1,0,.2-2.9,10,10,0,0,0-3,.27A12.89,12.89,0,0,0,98.05,143.75Z"/><path class="cls-4" d="M231.45,57.59l9.46-2.12V65.69a1.17,1.17,0,0,1-.43,1.08,2.26,2.26,0,0,1-1.12.34c-.43.06-.77.12-1,.18a6.88,6.88,0,0,0-1.24.47,9.12,9.12,0,0,0-3.15,2.33,5.4,5.4,0,0,0-1.34,2.5,2.61,2.61,0,0,0,.3,2,1.76,1.76,0,0,0,1.6.82A7.53,7.53,0,0,0,240,72.93a7,7,0,0,0,2.29-5V43.53l-10.85,2.34v4.71l9.46-2.14v2.25l-9.46,2.24Zm-10.93-9.36V70.14a1.94,1.94,0,0,1-.56,1.63,4,4,0,0,1-1.46.48c-.44.06-.78.11-1,.17a6.43,6.43,0,0,0-1.16.43A9.4,9.4,0,0,0,213,75.09a5,5,0,0,0-1.28,2.42,2.25,2.25,0,0,0,.3,1.93,2,2,0,0,0,1.72.78,7.59,7.59,0,0,0,6-2.89A8.77,8.77,0,0,0,222,71.51V59.7l9.46-2.11V52.93L222,55.17V52.71l9.46-2.13V45.87Z"/><path class="cls-4" d="M187.57,10.3h-.52V38c0,.32-.11.52-.34.6a6.34,6.34,0,0,1-1,.05,9.24,9.24,0,0,0-1.3,0,4.92,4.92,0,0,0-1.59.43,6.9,6.9,0,0,0-2.5,1.68A5.8,5.8,0,0,0,179,43.11a2,2,0,0,0,.22,2,2.89,2.89,0,0,0,2.46.91q2.4,0,4.74-2.5a7.36,7.36,0,0,0,2.29-5V18.31a23,23,0,0,0,2.37,2.16l2.37,1.68a20.4,20.4,0,0,1,3.36,2.63,5.31,5.31,0,0,1,1.38,3.63,10.4,10.4,0,0,1-1.6,4.95,29.12,29.12,0,0,1-3,4.36l.35.3a16.3,16.3,0,0,0,5.91-7.15A8.9,8.9,0,0,0,198.31,21c-.84-.89-1.7-1.72-2.59-2.5-.54-.46-1.29-1.06-2.24-1.81a34.41,34.41,0,0,1-3.06-2.59A21.1,21.1,0,0,1,187.57,10.3Z"/><path class="cls-4" d="M97,14.06l9.47-2.12V22.16a1.18,1.18,0,0,1-.44,1.09,2.32,2.32,0,0,1-1.12.34,9.54,9.54,0,0,0-1,.17,7,7,0,0,0-1.25.47,9.36,9.36,0,0,0-3.15,2.34,5.35,5.35,0,0,0-1.34,2.5,2.67,2.67,0,0,0,.3,2,1.77,1.77,0,0,0,1.6.81,7.52,7.52,0,0,0,5.52-2.45,7,7,0,0,0,2.29-5V0L97,2.34V7.05l9.47-2.13V7.16L97,9.4ZM86.11,4.7V26.61a2,2,0,0,1-.55,1.63,4.08,4.08,0,0,1-1.47.48c-.43.06-.78.11-1,.17a8.13,8.13,0,0,0-1.16.44,9.43,9.43,0,0,0-3.28,2.23A5,5,0,0,0,77.32,34a2.3,2.3,0,0,0,.3,1.94,2,2,0,0,0,1.72.78,7.62,7.62,0,0,0,6-2.89A8.74,8.74,0,0,0,87.58,28V16.17L97,14.06V9.4l-9.46,2.24V9.18L97,7.05V2.34Z"/><path class="cls-4" d="M43.94,62.14h-.52V89.86a.58.58,0,0,1-.34.61,6.78,6.78,0,0,1-.95,0,9.24,9.24,0,0,0-1.3,0,4.69,4.69,0,0,0-1.59.44,6.67,6.67,0,0,0-2.5,1.67A5.83,5.83,0,0,0,35.36,95a2,2,0,0,0,.22,2,2.9,2.9,0,0,0,2.46.9,6.58,6.58,0,0,0,4.73-2.5,7.29,7.29,0,0,0,2.29-5V70.16a25.27,25.27,0,0,0,2.37,2.15L49.81,74a20.3,20.3,0,0,1,3.36,2.63,5.27,5.27,0,0,1,1.38,3.62,10.46,10.46,0,0,1-1.6,5,29.06,29.06,0,0,1-3,4.35l.34.3a16.23,16.23,0,0,0,5.91-7.15,8.89,8.89,0,0,0-1.55-9.92c-.84-.89-1.7-1.72-2.59-2.5-.54-.46-1.29-1.06-2.24-1.81a34.41,34.41,0,0,1-3.06-2.59A20.74,20.74,0,0,1,43.94,62.14Z"/><path class="cls-15" d="M139,126.55c2.38-.39,4.73,1.89,5.24,5.09s-1,6.09-3.39,6.48-4.74-1.9-5.25-5.1S136.58,126.93,139,126.55Z"/><path class="cls-10" d="M143.15,99.21a1.49,1.49,0,1,1-2.4-1.78l.05-.06h0a8.7,8.7,0,0,1,5.78-3.17,8.9,8.9,0,0,1,6.49,1.47h0l.06,0a1.5,1.5,0,1,1-1.8,2.39l0,0a6,6,0,0,0-4.3-.92,5.82,5.82,0,0,0-3.82,2h0Z"/><path class="cls-10" d="M118.15,102.65a1.49,1.49,0,0,1-2.39-1.79l0-.06h0a8.79,8.79,0,0,1,5.78-3.17,8.9,8.9,0,0,1,6.49,1.47h0l.06,0a1.5,1.5,0,0,1-1.79,2.4l-.06-.05a5.93,5.93,0,0,0-4.3-.91,5.75,5.75,0,0,0-3.81,2h0Z"/></g></g></svg>