<svg xmlns="http://www.w3.org/2000/svg" xmlns:xlink="http://www.w3.org/1999/xlink" viewBox="0 0 202.72 240.94"><defs><style>.cls-1{fill:none;}.cls-2{opacity:0.17;}.cls-3,.cls-8{fill:#4d4d4d;}.cls-3,.cls-4,.cls-7{fill-rule:evenodd;}.cls-4{fill:#cc4137;}.cls-5{fill:#fff;}.cls-6{fill:#6b6868;}.cls-7{fill:#de453a;}.cls-9{fill:#ebb859;}.cls-10{clip-path:url(#clip-path);}.cls-11{fill:#facf7f;}</style><clipPath id="clip-path"><rect class="cls-1" x="40.59" y="131.41" width="106.98" height="93.23"/></clipPath></defs><title>shame</title><g id="Layer_2" data-name="Layer 2"><g id="OBJECTS"><ellipse class="cls-2" cx="94.08" cy="222.74" rx="94.08" ry="18.21"/><path class="cls-3" d="M70.14,31c9.93,0,18-2.58,17.73-15.41S80,2.1,67.15.36,43,3.26,44.43,11.47,60.21,31,70.14,31Z"/><path class="cls-4" d="M70.14,92.72c13.52,0,24.48-17.7,24.48-39.54s-11-32.06-24.48-32.06S45.66,31.34,45.66,53.18,56.62,92.72,70.14,92.72Z"/><path class="cls-5" d="M95.44,25.63a4.25,4.25,0,0,1-5.22,6.72c-3.71-2.88-11.87-4.26-20.14-4.26-8.49,0-16.68,1.43-19.88,4.14a4.25,4.25,0,1,1-5.49-6.49c4.76-4,15.13-6.17,25.37-6.17C80,19.57,90.17,21.53,95.44,25.63Z"/><path class="cls-6" d="M53.28,15.49A1.7,1.7,0,0,1,51,18a15,15,0,0,1-2.39-2.89,12,12,0,0,1-1.43-3.24A1.7,1.7,0,0,1,50.42,11a8.43,8.43,0,0,0,1,2.29A11.5,11.5,0,0,0,53.28,15.49Z"/><path class="cls-3" d="M167.42,45.17c-6.91-7.13-10.67-14.71-1.29-23.46S181,16.92,191.49,26s14.76,19.37,7.86,24S174.34,52.3,167.42,45.17Z"/><path class="cls-4" d="M123.13,88.15c-9.41-9.7-4.34-29.89,11.33-45.1s30.64-14.46,40-4.76,9.71,24.68-6,39.89S132.55,97.86,123.13,88.15Z"/><path class="cls-5" d="M152.47,31.7a4.26,4.26,0,0,1,1.19-8.43c6.61.94,15.11,6.87,22,14,7.13,7.35,12.83,16.27,13.24,22.51a4.25,4.25,0,1,1-8.48.58c-.28-4.19-5-11.06-10.88-17.16C163.8,37.25,157.13,32.36,152.47,31.7Z"/><path class="cls-6" d="M190.27,50a1.7,1.7,0,0,1,.15-3.39,11.39,11.39,0,0,0,2.88-.23,8.41,8.41,0,0,0,2.35-.86,1.7,1.7,0,1,1,1.67,3A11.92,11.92,0,0,1,194,49.7,14.57,14.57,0,0,1,190.27,50Z"/><path class="cls-7" d="M172.3,70.63c-1.19,8.76-2.07,38-17.62,48.08-11,36-24.42,77-59,77s-49.92-41-61.47-77c-11.93-13.53-15.75-39.3-17-47.94C45.73,45.43,140.69,47.33,172.3,70.63Z"/><path class="cls-5" d="M100,195.67a4.26,4.26,0,1,1-8.52,0V52.47a4.26,4.26,0,0,1,8.52,0Z"/><path class="cls-8" d="M165.17,107C129,89.25,58.83,84.7,24.27,104.79,22.4,99,20.9,93.42,19.73,88.3c37.44-21.67,112.77-18.85,150,2.3C168.55,95.74,167,101.28,165.17,107Z"/><path class="cls-5" d="M177.85,69.55a4.24,4.24,0,1,1-5.43,6.52C156.49,62.83,123.27,55.82,91,55.82c-30.89,0-60.53,6.39-72.65,19.84A4.25,4.25,0,1,1,12,70C25.87,54.6,58,47.3,91,47.3,125,47.3,160.34,55,177.85,69.55Z"/><path class="cls-9" d="M104.16,98.34H94.74V91.53h8V75.47h-8V68.65h9.42a5.43,5.43,0,0,1,5.43,5.43V92.91a5.43,5.43,0,0,1-5.43,5.43Zm-9.42,0H85.33a5.43,5.43,0,0,1-5.43-5.43V74.08a5.43,5.43,0,0,1,5.43-5.43h9.41v6.82h-8V91.53h8Z"/><rect class="cls-9" x="40.59" y="131.41" width="106.98" height="93.23"/><g class="cls-10"><rect class="cls-11" x="33.03" y="213.27" width="28.17" height="11.37"/><rect class="cls-11" x="64.34" y="213.27" width="28.17" height="11.37"/><rect class="cls-11" x="95.66" y="213.27" width="28.17" height="11.37"/><rect class="cls-11" x="126.97" y="213.27" width="28.17" height="11.37"/><rect class="cls-11" x="17.37" y="199.14" width="28.17" height="11.37"/><rect class="cls-11" x="48.68" y="199.14" width="28.17" height="11.37"/><rect class="cls-11" x="80" y="199.14" width="28.17" height="11.37"/><rect class="cls-11" x="111.31" y="199.14" width="28.17" height="11.37"/><rect class="cls-11" x="142.63" y="199.14" width="28.17" height="11.37"/><rect class="cls-11" x="33.03" y="184.44" width="28.17" height="11.37"/><rect class="cls-11" x="64.34" y="184.44" width="28.17" height="11.37"/><rect class="cls-11" x="95.66" y="184.44" width="28.17" height="11.37"/><rect class="cls-11" x="126.97" y="184.44" width="28.17" height="11.37"/><rect class="cls-11" x="17.37" y="170.31" width="28.17" height="11.37"/><rect class="cls-11" x="48.68" y="170.31" width="28.17" height="11.37"/><rect class="cls-11" x="80" y="170.31" width="28.17" height="11.37"/><rect class="cls-11" x="111.31" y="170.31" width="28.17" height="11.37"/><rect class="cls-11" x="142.63" y="170.31" width="28.17" height="11.37"/><rect class="cls-11" x="33.03" y="155.61" width="28.17" height="11.37"/><rect class="cls-11" x="64.34" y="155.61" width="28.17" height="11.37"/><rect class="cls-11" x="95.66" y="155.61" width="28.17" height="11.37"/><rect class="cls-11" x="126.97" y="155.61" width="28.17" height="11.37"/></g><rect class="cls-9" x="33.42" y="119.31" width="121.33" height="33.54"/></g></g></svg>