<svg xmlns="http://www.w3.org/2000/svg" viewBox="0 0 221.98 240.94"><defs><style>.cls-1{opacity:0.17;}.cls-2,.cls-7{fill:#4d4d4d;}.cls-10,.cls-12,.cls-2,.cls-3,.cls-6,.cls-9{fill-rule:evenodd;}.cls-3{fill:#cc4137;}.cls-4,.cls-9{fill:#fff;}.cls-5{fill:#6b6868;}.cls-6{fill:#de453a;}.cls-8{fill:#ebb859;}.cls-10,.cls-11{fill:#f9cabd;}.cls-12{fill:#edbbad;}.cls-13{fill:#d49d8e;}</style></defs><title>thank_you</title><g id="Layer_2" data-name="Layer 2"><g id="OBJECTS"><ellipse class="cls-1" cx="104.88" cy="225.75" rx="78.51" ry="15.2"/><path class="cls-2" d="M194.12,105.14c5.9-4,19.54-7.17,20.58-3.11s-4.46,4.65-4.46,4.65,12.81-.07,11.67,9.38S198.34,126.8,192.14,118,190.12,107.83,194.12,105.14Z"/><path class="cls-3" d="M141.92,117.77c-.65-6.86,12.21-16,30.35-17.76s28.49,5.3,29.13,12.16-8.38,15-26.52,16.67S142.56,124.63,141.92,117.77Z"/><path class="cls-4" d="M196,97.57a3.55,3.55,0,0,0-4.63,5.37c1.87,1.62,3.08,5.66,3.47,9.88s0,8.52-1.48,10.19a3.55,3.55,0,1,0,5.37,4.63c2.74-3.17,3.74-9.46,3.17-15.48C201.36,106.34,199.34,100.46,196,97.57Z"/><path class="cls-5" d="M212.39,118.27a1.41,1.41,0,0,0,.4,2.8,12.41,12.41,0,0,0,3-.82,9.9,9.9,0,0,0,2.54-1.52,1.43,1.43,0,0,0,.17-2,1.41,1.41,0,0,0-2-.17,7.18,7.18,0,0,1-1.8,1.08A9.54,9.54,0,0,1,212.39,118.27Z"/><path class="cls-5" d="M211.27,105.26a1.42,1.42,0,0,1-.4-2.81l.19,0h0l0,0a1.42,1.42,0,1,1,1.83,2.17,3,3,0,0,1-.7.43l-.11.05A3.34,3.34,0,0,1,211.27,105.26Z"/><path class="cls-2" d="M55.27,41.71c-1-7-7.86-19.27-11.57-17.3s-.42,6.43-.42,6.43-8.58-9.51-14.8-2.31S36.42,53.19,47.1,51.84,56,46.48,55.27,41.71Z"/><path class="cls-3" d="M81.11,88.8c5.5-4.14,3.63-19.84-7.33-34.4S50.68,36.92,45.17,41.07,39.76,57.34,50.72,71.9,75.6,93,81.11,88.8Z"/><path class="cls-4" d="M58.76,42.27a3.55,3.55,0,0,0,.83-7.06c-4.37-.51-10.08,2-14.75,5.48C40,44.34,36,49.31,35.53,53.46a3.55,3.55,0,0,0,7,.86c.26-2.2,3.06-5.36,6.53-8S56.28,42,58.76,42.27Z"/><path class="cls-5" d="M30.63,38.48A1.42,1.42,0,0,0,33.05,37a9.5,9.5,0,0,1-1-2.19,7.16,7.16,0,0,1-.32-2.07,1.42,1.42,0,0,0-2.84,0,10.19,10.19,0,0,0,.44,2.93A12.72,12.72,0,0,0,30.63,38.48Z"/><path class="cls-5" d="M43.44,29.48A1.42,1.42,0,1,0,45.86,28a1,1,0,0,1-.08-.18v-.07a1.42,1.42,0,0,0-2.84,0,3.1,3.1,0,0,0,.11.81l0,.12A3.32,3.32,0,0,0,43.44,29.48Z"/><path class="cls-2" d="M106.92,204c-6-5.72-12.35-8.8-19.58-.91s-3,12.66,3.73,21.13,16.27,12.18,20.12,6.39S112.91,209.69,106.92,204Z"/><path class="cls-3" d="M105.54,151.13c-11.18-1.47-22.17,12-24.54,30.06s5.58,27.71,16.77,29.18,21.36-5.8,23.73-23.87S116.73,152.6,105.54,151.13Z"/><path class="cls-4" d="M77.32,203.9a3.56,3.56,0,1,1,5.06-5c2.75,2.79,9.35,4.81,16.19,5.71,7,.92,14,.63,16.9-1.27a3.55,3.55,0,1,1,3.84,6c-4.38,2.83-13.19,3.46-21.66,2.35C89.45,210.59,81.24,207.86,77.32,203.9Z"/><path class="cls-5" d="M107.6,222.17a1.42,1.42,0,0,1,2.74-.74,12.82,12.82,0,0,1,.43,3.1,10.21,10.21,0,0,1-.41,2.93,1.42,1.42,0,0,1-2.71-.83,7,7,0,0,0,.28-2.08A9.18,9.18,0,0,0,107.6,222.17Z"/><path class="cls-2" d="M29.33,162.09c4.61,6.89,6.54,13.68-2.48,19.44S14,183.23,6.68,174.21s-9.19-18.13-2.82-20.92S24.73,155.19,29.33,162.09Z"/><path class="cls-3" d="M72.17,133.49c6.27,9.38-.94,25.19-16.1,35.31s-27.33,7.25-33.59-2.14-4.25-21.72,10.91-31.84S65.91,124.11,72.17,133.49Z"/><path class="cls-4" d="M39.57,175.4a3.55,3.55,0,0,1-2.24,6.74C32,180.37,26,174.22,21.38,167.34c-4.75-7.11-8.08-15.29-7.48-20.47a3.55,3.55,0,0,1,7,.81c-.4,3.47,2.4,9.82,6.34,15.72C31.12,169.13,35.85,174.16,39.57,175.4Z"/><path class="cls-5" d="M11.31,154.68a1.42,1.42,0,0,1-.64,2.77,9.28,9.28,0,0,0-2.39-.25,7,7,0,0,0-2.06.35,1.42,1.42,0,1,1-.93-2.68,9.9,9.9,0,0,1,2.91-.51A12.48,12.48,0,0,1,11.31,154.68Z"/><path class="cls-6" d="M25.8,135.65c10.9-17.14,60.64-87,101.74-68s21.52,102.75,15.85,122.08C112.91,199,41.6,164.35,25.8,135.65Z"/><path class="cls-4" d="M124.27,66.15a3.56,3.56,0,0,1,6.46,3l-50,108.53a3.56,3.56,0,0,1-6.46-3Z"/><path class="cls-7" d="M43.9,110.58c21.24,26.1,72.8,54.05,106,50.91-.61,5-1.41,9.79-2.32,14.08-35.95,3.34-92-25.12-112.89-54.17C37.41,117.93,40.5,114.27,43.9,110.58Z"/><path class="cls-4" d="M21.21,134.53a3.54,3.54,0,0,1,6.39-3.05c7.45,15.6,30.18,32.52,54.64,43.8,23.4,10.79,48.1,16.31,62,10.35a3.55,3.55,0,0,1,2.81,6.53c-15.87,6.8-42.75,1.11-67.77-10.42C53.51,169.86,29.4,151.67,21.21,134.53Z"/><path class="cls-8" d="M89.06,139.36,101.39,145a4.53,4.53,0,0,1,2.21,6L97,165.32a4.55,4.55,0,0,1-6,2.22l-2-.9v-6.26l3.28,1.51L98,149.72l-8.9-4.1Zm-1.94-.9,1.94.9v6.26l-3.28-1.51-5.61,12.17,8.89,4.1v6.26L76.74,161a4.55,4.55,0,0,1-2.22-6l6.58-14.26a4.53,4.53,0,0,1,6-2.22Z"/><path class="cls-9" d="M75.67,21.11a12.39,12.39,0,1,1-16.43,6.06A12.4,12.4,0,0,1,75.67,21.11Z"/><path class="cls-3" d="M181.65,62.64C194,48.3,179.38,5.4,141.76.52c-38.26-5-41.34,27.19-61.53,28.21s-17.42,15.38,28.7,19.11S174.52,70.94,181.65,62.64Z"/><ellipse class="cls-4" cx="143.36" cy="51.03" rx="31.91" ry="46.79" transform="translate(31.9 154.63) rotate(-62.5)"/><path class="cls-6" d="M130.19,75.29c5.8,2.87,5.59,15.09-.46,27.29s-15.65,19.75-21.45,16.88-5.59-15.1.46-27.29S124.39,72.41,130.19,75.29Z"/><path class="cls-9" d="M136.78,50.07c-2.11,6.11-14.25,7.47-27.12,3S88.07,40.09,90.18,34s14.26-7.48,27.13-3S138.9,44,136.78,50.07Z"/><path class="cls-9" d="M147.37,55.58c-3.8,5.24,2,16,13.07,24s23,10.23,26.84,5-2.06-16-13.08-24S151.17,50.34,147.37,55.58Z"/><path class="cls-10" d="M182.21,67.36c2.5,1.3,2.58,6.09.18,10.7-1.61,3.1-3.94,5.33-6.06,6l.08-.14a27.81,27.81,0,0,0,2.78-16.6A3.61,3.61,0,0,1,182.21,67.36Z"/><ellipse class="cls-11" cx="136.92" cy="63.41" rx="31.29" ry="41.72" transform="translate(17.45 155.57) rotate(-62.5)"/><path class="cls-9" d="M122.25,65.93c4.89,4.24,1.62,16-7.3,26.3s-20.11,15.19-25,11-1.62-16,7.3-26.3S117.37,61.69,122.25,65.93Z"/><path class="cls-9" d="M121.65,54.63c3.47,5.47-3.05,15.81-14.56,23.09S83.46,86.48,80,81s3.06-15.8,14.56-23.09S118.19,49.17,121.65,54.63Z"/><ellipse class="cls-4" cx="105.63" cy="57.11" rx="11.72" ry="24.65" transform="translate(17.17 138.32) rotate(-70.95)"/><path class="cls-9" d="M131.37,73c5.79,2.88,5.59,15.09-.46,27.29s-15.66,19.75-21.45,16.88-5.59-15.09.46-27.29S125.57,70.16,131.37,73Z"/><path class="cls-9" d="M142.7,76.58c-6.27-1.57-14,7.86-17.35,21.06s-.91,25.19,5.37,26.76,14.05-7.85,17.36-21.06S149,78.15,142.7,76.58Z"/><ellipse class="cls-4" cx="153.45" cy="95.22" rx="11.72" ry="24.65" transform="translate(-4.24 7.19) rotate(-2.65)"/><ellipse class="cls-4" cx="159.47" cy="85.14" rx="11.72" ry="24.65" transform="translate(-3.09 164.22) rotate(-54.04)"/><path class="cls-9" d="M137.22,61.12c9.31,4.85,14.89,12.59,12.44,17.28s-12,4.57-21.29-.29-14.89-12.58-12.45-17.28S127.9,56.27,137.22,61.12Z"/><path class="cls-12" d="M141.26,55.08a12.17,12.17,0,1,1-16.42,5.17A12.16,12.16,0,0,1,141.26,55.08Z"/><path class="cls-10" d="M135.83,56.49A3.61,3.61,0,1,1,131,58,3.62,3.62,0,0,1,135.83,56.49Z"/><path class="cls-4" d="M151.51,49a2.84,2.84,0,0,1-1.14-5.56c2.75-.56,6.43.65,9.49,2.57s5.91,4.91,6.45,7.54a2.83,2.83,0,1,1-5.55,1.14c-.22-1.06-1.89-2.59-3.91-3.86S152.74,48.74,151.51,49Z"/><path class="cls-4" d="M144.8,40.54a2.83,2.83,0,1,1-5.2,2.25c-.5-1.15-2.41-2.41-4.57-3.32s-4.4-1.42-5.4-1a2.83,2.83,0,1,1-2.25-5.2c2.47-1.07,6.42-.5,9.88,1S143.69,38,144.8,40.54Z"/><path class="cls-10" d="M107.89,28.67c-2.5-1.3-6.47,1.38-8.87,6-1.61,3.1-2.1,6.29-1.48,8.44l.07-.15a27.85,27.85,0,0,1,12-11.79A3.6,3.6,0,0,0,107.89,28.67Z"/><path class="cls-7" d="M148.14,58.88a1.46,1.46,0,0,1-.89-2.78l.07,0h0a8.57,8.57,0,0,1,6.4.74,8.73,8.73,0,0,1,4.35,4.85.36.36,0,0,1,0,.11,1.47,1.47,0,0,1-1,1.81,1.45,1.45,0,0,1-1.82-.92.36.36,0,0,1,0-.09,5.75,5.75,0,0,0-2.91-3.16,5.69,5.69,0,0,0-4.19-.55h0Z"/><path class="cls-7" d="M126.26,47.49a1.46,1.46,0,1,1-.89-2.79l.06,0h0a8.59,8.59,0,0,1,6.41.73,8.76,8.76,0,0,1,4.35,4.85l0,.11a1.46,1.46,0,0,1-2.78.9l0-.09A5.8,5.8,0,0,0,130.51,48a5.66,5.66,0,0,0-4.2-.54h0Z"/><path class="cls-13" d="M119.72,76.54a1.46,1.46,0,0,1,2.77-.94l0,.08h0a9.25,9.25,0,0,0,4.79,4.95,9.44,9.44,0,0,0,7,.68h0l.11,0a1.47,1.47,0,0,1,1,2.77l-.11,0h0a12.32,12.32,0,0,1-9.17-.81,12.11,12.11,0,0,1-6.29-6.6h0Z"/></g></g></svg>