<svg xmlns="http://www.w3.org/2000/svg" viewBox="0 0 230.62 240.94"><defs><style>.cls-1{opacity:0.17;}.cls-11,.cls-2{fill:#fff;}.cls-10,.cls-13,.cls-16,.cls-18,.cls-2,.cls-3,.cls-4,.cls-5,.cls-6,.cls-7,.cls-9{fill-rule:evenodd;}.cls-3{fill:#d4ccba;}.cls-4{fill:#4bb386;}.cls-5,.cls-8{fill:#ccc;}.cls-6{fill:#aaa395;}.cls-7{fill:#3c8f6b;}.cls-14,.cls-9{fill:#4d4d4d;}.cls-10{fill:#cc4137;}.cls-12{fill:#6b6868;}.cls-13{fill:#de453a;}.cls-15{fill:#ebb859;}.cls-16,.cls-17{fill:#f9cabd;}.cls-18{fill:#edbbad;}.cls-19{fill:#d49d8e;}</style></defs><title>wondering</title><g id="Layer_2" data-name="Layer 2"><g id="OBJECTS"><ellipse class="cls-1" cx="82.45" cy="225.38" rx="80.41" ry="15.56"/><polygon class="cls-2" points="193.1 206.52 183.95 184.1 221.47 143.11 230.62 165.54 193.1 206.52"/><polygon class="cls-3" points="201.84 164.55 216.03 158.39 217.84 153.86 213.77 151.53 201.84 164.55"/><polygon class="cls-3" points="217.1 175.6 207.06 186.57 213.38 170.83 217.1 175.6"/><polygon class="cls-4" points="223.27 156.97 226.63 165.19 219.27 173.23 214.75 167.43 219.76 154.96 223.27 156.97"/><polygon class="cls-3" points="221.1 151.64 221.13 151.73 221.08 151.69 221.1 151.64"/><polygon class="cls-3" points="218.81 146.02 219.91 148.72 219.16 150.6 216.18 148.89 218.81 146.02"/><polygon class="cls-3" points="195.08 171.94 194.48 174.72 192.6 174.65 195.08 171.94"/><polygon class="cls-3" points="190.85 191.56 186.62 181.19 189.55 177.98 193.74 178.14 190.85 191.56"/><polygon class="cls-3" points="194.44 200.36 192.32 195.18 197.85 169.56 214.43 162.36 202.85 191.16 194.44 200.36"/><polygon class="cls-5" points="183.97 184.08 160.81 176.96 198.32 135.98 221.48 143.1 183.97 184.08"/><path class="cls-6" d="M200.72,153.13a7.51,7.51,0,0,1-1.16,1.62,11.74,11.74,0,0,1-3.56,2.59l1.72,9.6,4.14-2.4,11.92-13Z"/><path class="cls-6" d="M188.46,158.3a3.66,3.66,0,0,1-2.91-3.28l-5.25.65-9.51,10.38.26,4.89,22.4-8.19-.78-4.31A9,9,0,0,1,188.46,158.3Z"/><path class="cls-6" d="M195.66,138.88,218.82,146l-2.63,2.87-14.87,1.84a3.66,3.66,0,0,0-2.91-3.29,9,9,0,0,0-4.21-.13l-1-5.7Z"/><path class="cls-3" d="M190.23,144.82l.64,3.58a11.74,11.74,0,0,0-3.56,2.59,8.1,8.1,0,0,0-1.16,1.61l-3.44.43Z"/><polygon class="cls-7" points="167.58 169.56 167.71 172.16 163.94 173.54 167.58 169.56"/><polygon class="cls-6" points="179.54 179 166.42 174.96 193.84 164.94 195.09 171.93 192.61 174.64 179.54 179"/><polygon class="cls-6" points="186.63 181.17 183.16 180.1 189.56 177.97 186.63 181.17"/><path class="cls-7" d="M188.46,158.3c-3.38-1-3.89-4.31-1.15-7.31s7.72-4.6,11.1-3.56,3.9,4.32,1.15,7.32S191.84,159.34,188.46,158.3Z"/><path class="cls-8" d="M193.44,146.31a11.42,11.42,0,0,1,6,0,4.55,4.55,0,0,1,3.49,3.54c.25,1.61-.43,3.51-2.1,5.33a15,15,0,0,1-6.44,4l-1,.28v-2.31l.64-.18a9.8,9.8,0,0,0,4.18-2.59,4.29,4.29,0,0,0,1.35-3.46,2.94,2.94,0,0,0-2.26-2.3,7.51,7.51,0,0,0-3.91,0Zm-6,13.15a4.53,4.53,0,0,1-3.48-3.54c-.25-1.61.42-3.51,2.09-5.34a15.14,15.14,0,0,1,6.44-4c.33-.1.66-.2,1-.28v2.3l-.64.19a9.74,9.74,0,0,0-4.18,2.59,4.32,4.32,0,0,0-1.36,3.46,2.94,2.94,0,0,0,2.26,2.3,7.45,7.45,0,0,0,3.92,0v2.31A11.46,11.46,0,0,1,187.4,159.46Z"/><path class="cls-9" d="M153.7,134.75c1.87-1.54,5.58-.14,8.29,3.14s3.38,7.18,1.5,8.73-5.57.14-8.28-3.14S151.83,136.29,153.7,134.75Z"/><polygon class="cls-2" points="160.81 176.96 152.25 153.89 189.76 112.9 198.32 135.98 160.81 176.96"/><polygon class="cls-3" points="180.3 155.67 174.67 152.15 170.79 166.05 180.3 155.67"/><polygon class="cls-3" points="194.5 135.75 195.66 138.88 193.18 141.6 194.5 135.75"/><polygon class="cls-3" points="189.75 122.94 193.12 132.04 190.23 144.82 182.71 153.03 175.98 148.83 189.75 122.94"/><polygon class="cls-3" points="166.57 142.95 188.34 119.16 188.72 120.17 174.1 147.65 166.57 142.95"/><polygon class="cls-4" points="163.28 173.54 156.15 154.33 164.16 145.59 172.77 150.97 167.58 169.56 163.94 173.54 163.28 173.54"/><path class="cls-9" d="M163.87,140.75s10.68,7.61,15.3-1-13.4-22.9-23.78-19.19-7.69,7.33-5.93,11.94C152.07,139.33,159.85,143.1,163.87,140.75Z"/><path class="cls-10" d="M113.2,91.17c-4.59,5.36.76,20.64,14.94,32.77s27,12.36,31.57,7,1.8-17.47-12.38-29.6S117.79,85.8,113.2,91.17Z"/><path class="cls-11" d="M146.57,140a3.63,3.63,0,0,1-.71-7.22c2.53-.26,5.92-2.93,8.74-6.24s5-7.15,4.77-9.4a3.63,3.63,0,1,1,7.22-.71c.43,4.27-2.44,10.12-6.47,14.84C156.23,135.79,151.07,139.52,146.57,140Z"/><path class="cls-12" d="M172.5,132.32a1.45,1.45,0,0,1,2-2.12,12.78,12.78,0,0,1,2,2.46,9.86,9.86,0,0,1,1.22,2.77,1.45,1.45,0,1,1-2.81.74,6.9,6.9,0,0,0-.87-2A9.45,9.45,0,0,0,172.5,132.32Z"/><path class="cls-9" d="M107.83,204.67c-8.49,0-15.37,2.21-15.15,13.17s6.69,11.53,17.71,13,20.67-2.48,19.42-9.49S116.32,204.67,107.83,204.67Z"/><path class="cls-10" d="M107.83,151.92c-11.55,0-20.92,15.13-20.92,33.79s9.37,27.4,20.92,27.4,20.92-8.74,20.92-27.4S119.39,151.92,107.83,151.92Z"/><path class="cls-11" d="M86.21,209.26a3.64,3.64,0,0,1,4.47-5.75c3.17,2.47,10.14,3.65,17.2,3.65,7.26,0,14.27-1.22,17-3.55a3.63,3.63,0,0,1,4.69,5.55c-4.07,3.46-12.93,5.28-21.69,5.28C99.42,214.44,90.72,212.76,86.21,209.26Z"/><path class="cls-12" d="M122.25,217.92a1.44,1.44,0,0,1-.07-2,1.46,1.46,0,0,1,2.06-.06,13.15,13.15,0,0,1,2,2.46A10.47,10.47,0,0,1,127.5,221a1.45,1.45,0,1,1-2.81.74,7.2,7.2,0,0,0-.87-2A9.81,9.81,0,0,0,122.25,217.92Z"/><path class="cls-9" d="M57.79,204.67c8.49,0,15.37,2.21,15.15,13.17s-5.87,11.94-17.71,13-20.66-2.48-19.42-9.49S49.3,204.67,57.79,204.67Z"/><path class="cls-10" d="M57.79,151.92c11.55,0,20.92,15.13,20.92,33.79s-9.37,27.4-20.92,27.4-20.92-8.74-20.92-27.4S46.24,151.92,57.79,151.92Z"/><path class="cls-11" d="M75,203.51a3.64,3.64,0,0,1,4.46,5.75c-4.51,3.5-13.2,5.18-21.67,5.18-8.76,0-17.62-1.82-21.69-5.28a3.64,3.64,0,0,1,4.7-5.55c2.73,2.33,9.73,3.55,17,3.55C64.8,207.16,71.78,206,75,203.51Z"/><path class="cls-12" d="M41.23,215.81a1.46,1.46,0,0,1,2.06.06,1.44,1.44,0,0,1-.07,2,9.81,9.81,0,0,0-1.57,1.9,7.2,7.2,0,0,0-.87,2A1.45,1.45,0,1,1,38,221a10.18,10.18,0,0,1,1.23-2.77A12.74,12.74,0,0,1,41.23,215.81Z"/><path class="cls-13" d="M16.89,176.36C19.68,155.74,36,69.42,82.35,69.49s64.09,86.34,67.1,106.74C125.06,197.9,43.89,196.27,16.89,176.36Z"/><path class="cls-11" d="M78.67,69.49a3.64,3.64,0,1,1,7.28,0V191.88a3.64,3.64,0,1,1-7.28,0Z"/><path class="cls-14" d="M23,145.28c30.94,15.16,90.88,19.05,120.42,1.89,1.59,5,2.88,9.71,3.87,14.09-32,18.51-96.37,16.1-128.21-2C20.09,154.9,21.39,150.17,23,145.28Z"/><path class="cls-11" d="M12.14,177.28a3.63,3.63,0,0,1,4.64-5.58C30.4,183,58.79,189,86.37,189c26.4,0,51.73-5.45,62.09-16.95a3.64,3.64,0,0,1,5.41,4.86C142,190.06,114.59,196.3,86.37,196.3,57.33,196.3,27.1,189.71,12.14,177.28Z"/><path class="cls-15" d="M83.17,152.67h8a4.66,4.66,0,0,1,4.65,4.65v16.09a4.66,4.66,0,0,1-4.65,4.64h-8v-5.83H90V158.5H83.17Zm-8,0h8v5.83H76.31v13.72h6.86v5.83h-8a4.64,4.64,0,0,1-4.64-4.64V157.32a4.64,4.64,0,0,1,4.64-4.65Z"/><path class="cls-2" d="M10.64,64.67A12.69,12.69,0,1,1,.17,79.23,12.68,12.68,0,0,1,10.64,64.67Z"/><path class="cls-10" d="M117.8,33.11c1.3-19.3-37-45.56-70.81-26.49C12.56,26,29.75,54.28,13.82,67.5S9,90.8,49.07,65.57,117.05,44.3,117.8,33.11Z"/><ellipse class="cls-11" cx="79.28" cy="47.07" rx="47.92" ry="32.69" transform="translate(-6.55 13.4) rotate(-9.28)"/><path class="cls-13" d="M83.35,75.05c6.52-1.2,13.84,9,16.36,22.67s-.73,25.8-7.25,27-13.84-8.95-16.36-22.66S76.83,76.25,83.35,75.05Z"/><path class="cls-2" d="M73.29,50.32c2,6.31-7.11,14.87-20.39,19.12S27.22,72,25.2,65.7s7.11-14.87,20.39-19.12S71.27,44,73.29,50.32Z"/><path class="cls-2" d="M85.35,48.35C85.45,55,96.83,60.18,110.77,60s25.17-5.73,25.07-12.36S124.37,35.79,110.43,36,85.26,41.72,85.35,48.35Z"/><path class="cls-16" d="M121.16,36.65c2.85-.46,5.85,3.41,6.71,8.66.57,3.54,0,6.79-1.26,8.68l0-.17a28.51,28.51,0,0,0-7.91-15.31A3.69,3.69,0,0,1,121.16,36.65Z"/><ellipse class="cls-17" cx="81.58" cy="61.17" rx="42.73" ry="32.05" transform="translate(-8.8 13.95) rotate(-9.28)"/><path class="cls-2" d="M71.1,72.24c6.61.48,11.15,12.15,10.14,26.05s-7.19,24.79-13.8,24.31-11.14-12.14-10.13-26S64.49,71.76,71.1,72.24Z"/><path class="cls-2" d="M63.68,63.34c6.19,2.36,7.18,14.84,2.21,27.87s-14,21.67-20.2,19.31S38.5,95.68,43.47,82.65,57.49,61,63.68,63.34Z"/><path class="cls-2" d="M76.1,67.51c2,6.31-7.11,14.87-20.39,19.12S30,89.2,28,82.89,35.12,68,48.4,63.77,74.08,61.2,76.1,67.51Z"/><path class="cls-2" d="M82.93,72.48c6.52-1.2,13.84,9,16.36,22.66s-.73,25.8-7.25,27-13.84-9-16.36-22.67S76.41,73.67,82.93,72.48Z"/><path class="cls-2" d="M94.41,68.44c-6.12,2.55-6.71,15-1.33,27.92S107.79,117.57,113.9,115s6.7-15.05,1.32-27.92S100.52,65.88,94.41,68.44Z"/><path class="cls-2" d="M98.61,57.64c-5.12,4.2-2.09,16.35,6.77,27.12s20.18,16.09,25.3,11.88,2.09-16.36-6.77-27.13S103.73,53.43,98.61,57.64Z"/><path class="cls-2" d="M88.16,65.54c.1,6.63,11.48,11.84,25.42,11.64s25.17-5.74,25.07-12.36S127.18,53,113.23,53.18,88.07,58.91,88.16,65.54Z"/><path class="cls-2" d="M80.42,59.12c10.62-1.74,19.94,1.19,20.81,6.54s-7,11.09-17.64,12.83-19.94-1.2-20.81-6.55S69.81,60.85,80.42,59.12Z"/><path class="cls-18" d="M80,51.68A12.47,12.47,0,1,1,69.74,66,12.46,12.46,0,0,1,80,51.68Z"/><path class="cls-16" d="M76.45,56.17a3.7,3.7,0,1,1-3.06,4.25A3.7,3.7,0,0,1,76.45,56.17Z"/><path class="cls-9" d="M91.15,44.08c1.51-.25,3.1,1.73,3.54,4.42s-.44,5.07-2,5.32-3.1-1.73-3.54-4.42S89.63,44.32,91.15,44.08Z"/><path class="cls-9" d="M66.21,48.15c1.51-.25,3.1,1.73,3.54,4.42s-.43,5.08-2,5.33-3.1-1.74-3.54-4.43S64.69,48.4,66.21,48.15Z"/><path class="cls-11" d="M84.25,37.61a2.9,2.9,0,1,1-4.34-3.85c1.92-2.15,5.68-3.42,9.36-3.72,3.83-.31,7.86.4,9.92,2.23a2.9,2.9,0,0,1-3.86,4.34c-.83-.73-3.14-1-5.57-.77S85.11,36.65,84.25,37.61Z"/><path class="cls-11" d="M74.44,41.33a2.9,2.9,0,1,1-2.89,5c-1.12-.64-3.45-.51-5.78.07s-4.48,1.54-5,2.5a2.9,2.9,0,1,1-5-2.89c1.37-2.38,4.95-4.34,8.69-5.26C68,39.9,71.94,39.9,74.44,41.33Z"/><path class="cls-16" d="M36.47,50.49C33.62,51,32,55.58,32.86,60.83c.58,3.53,2.13,6.45,4,7.83l0-.17a28.53,28.53,0,0,1,2.61-17A3.64,3.64,0,0,0,36.47,50.49Z"/><path class="cls-9" d="M40.63,76.15c4.84-5.45,10-18.89,6-20.46-3.24-1.28-5.32,3.89-5.32,3.89,2.78-7,5.38-19.32-2.81-9.53C30,48.12,19.22,68.89,27.3,76.39S37.35,79.84,40.63,76.15Z"/><path class="cls-10" d="M23.71,118.47c6.88,1.6,14.89-1.26,19.12-19.44s-1.46-29.64-8.34-31.24S18.16,74.24,13.93,92.42,16.83,116.87,23.71,118.47Z"/><path class="cls-11" d="M42.49,79.25a3.64,3.64,0,1,0,6.09-4c-2.48-3.77-8.17-6.63-14-8-6-1.4-12.56-1.25-16.14,1.09a3.64,3.64,0,0,0,4,6.1c1.9-1.24,6.22-1.12,10.55-.11S41.09,77.12,42.49,79.25Z"/><path class="cls-12" d="M30.86,55.16A1.45,1.45,0,0,0,33.15,57a9.61,9.61,0,0,1,1.75-1.74,7.12,7.12,0,0,1,1.87-1,1.46,1.46,0,0,0,.87-1.86,1.44,1.44,0,0,0-1.86-.87,9.79,9.79,0,0,0-2.65,1.47A12.74,12.74,0,0,0,30.86,55.16Z"/><path class="cls-12" d="M42.46,58.82a1.45,1.45,0,1,0,2.75.93,1.11,1.11,0,0,1,.09-.19l0,0,0,0a1.45,1.45,0,0,0-1.84-2.24,3,3,0,0,0-.57.62.86.86,0,0,0-.07.1A3.43,3.43,0,0,0,42.46,58.82Z"/><path class="cls-19" d="M83.06,84.27a1.49,1.49,0,1,1,.18-3h.1a9.44,9.44,0,0,0,6.55-2.6,9.68,9.68,0,0,0,3.36-6.34h0v-.11a1.5,1.5,0,1,1,3,.18v.11h0a12.7,12.7,0,0,1-4.35,8.37,12.4,12.4,0,0,1-8.71,3.37h-.12Z"/></g></g></svg>